<svg xmlns="http://www.w3.org/2000/svg" viewBox="0 -5 100 100" fill="#B5988F">
  <g transform="matrix(1.0899657011032104,0,0,1.0899657011032104,-4.49861478805542,-8.783912658691406)">
    <path fill="#F6E8D0" d="M82.048 82.83 71.48 84.314l-1.406.198-1.407.197.064-22.766-13.412 1.887-.044 15.514-.004 1.514-.005 1.513-.012 4.223-10.568 1.484-1.407.198-1.407.197.073-26.549-10.037 1.407 3.026-4.217 27.218-37.933.959 1.076.959 1.076 28.116 31.529-10.063 1.414z"/>
    <path d="M94.287 52.99 64.253 19.31l-.01-.009c-.036-.04-.081-.07-.119-.108a3 3 0 0 0-.34-.299c-.058-.041-.123-.07-.183-.106-.115-.069-.23-.139-.355-.191-.016-.007-.029-.019-.046-.025L39.103 8.916a2.81 2.81 0 0 0-3.331.971L5.527 52.036a2.812 2.812 0 0 0 1.239 4.251l8.247 3.304-.053 19.22a2.81 2.81 0 0 0 1.767 2.618l24.101 9.655q.016.004.031.009c.117.046.237.076.357.104.048.012.094.03.142.039a2.8 2.8 0 0 0 .908.022l.009-.001.022-.003 13.351-1.875a2.81 2.81 0 0 0 2.421-2.777l.009-3.104 9.545 3.823q.016.005.03.009c.116.045.236.075.355.104.049.012.095.03.145.04q.257.048.516.049.195 0 .391-.028l.008-.001.025-.004 13.349-1.874a2.81 2.81 0 0 0 2.421-2.777l.069-24.115 7.649-1.075a2.815 2.815 0 0 0 1.706-4.659M82.048 82.83 71.48 84.314l-1.406.198-1.407.197.064-22.766-13.412 1.887-.044 15.514-.004 1.514-.005 1.513-.012 4.223-10.568 1.484-1.407.198-1.407.197.073-26.549-10.037 1.407 3.026-4.217 27.218-37.933.959 1.076.959 1.076 28.116 31.529-10.063 1.414z"/>
  </g>
</svg>
